<svg width="148" height="207" viewBox="0 0 148 207" fill="none" xmlns="http://www.w3.org/2000/svg">
<path d="M70.0072 5.08283C70.7331 5.45247 71.0053 5.7297 71.7312 5.91452C72.3664 6.09934 73.2738 6.5614 73.4553 6.00693C73.7275 5.45247 73.3646 4.71318 72.9109 4.06631C72.185 2.86497 71.822 2.58774 70.8238 0.924344C70.6424 0.554701 70.4609 0.185059 70.0979 0.185059C70.0979 0.185059 70.0072 1.3864 69.6442 2.12568C69.372 2.77256 68.6461 3.23461 68.7368 3.69667C68.8275 4.15872 69.2812 4.71318 70.0072 5.08283Z" fill="#F8F8F8"/>
<path d="M145.866 84.2784C145.05 85.3873 144.687 87.6051 143.507 89.4534C141.874 92.0409 139.515 95.1828 138.335 95.1828C137.7 95.1828 137.518 93.7043 137.518 93.7043C137.518 93.7043 136.702 91.2092 138.063 88.0672C139.061 85.8493 139.605 85.2025 140.876 83.5391C142.055 81.9681 142.781 81.1364 143.598 79.473C144.324 77.9944 144.505 77.7172 144.959 75.4069C145.05 74.8525 144.868 73.6511 144.324 73.7435C143.598 73.7435 141.602 78.1793 139.515 80.6743C137.518 82.9846 133.798 85.9418 133.798 85.9418C133.798 85.9418 133.435 86.219 133.435 85.4797C133.344 84.8328 133.253 82.8922 133.616 81.1364C133.979 79.3806 134.524 77.6248 136.066 74.9449C137.791 71.8953 139.968 69.7699 141.057 68.661C141.511 68.1989 142.872 67.3672 142.146 66.9052C141.511 66.5355 139.605 68.1989 138.153 69.3078C136.339 70.694 135.703 71.0636 133.889 73.2815C132.074 75.4993 131.62 76.4234 131.62 76.4234C131.62 76.4234 129.896 79.2882 129.442 82.0605C128.989 84.8328 128.989 86.4038 128.989 86.4038C128.989 86.4038 128.989 88.8989 129.261 90.3775C129.442 91.9485 130.078 94.3511 130.078 94.3511C130.078 94.3511 130.985 97.031 131.348 98.6944C131.711 100.358 132.346 105.256 132.346 105.256C132.346 105.256 132.8 108.767 132.528 112.094C132.255 115.421 131.983 117.361 131.62 118.378C131.257 119.394 130.259 122.074 128.626 123.923C127.083 125.678 126.72 125.956 126.72 125.956C126.72 125.956 125.087 127.342 123.726 128.081C122.365 128.82 120.368 129.744 119.461 130.022C118.553 130.206 117.283 130.299 117.192 130.299H116.013L115.65 130.022L115.468 129.282C115.468 129.282 114.561 125.678 113.472 123.368C112.565 121.427 110.659 118.748 110.659 118.748C110.659 118.748 107.392 114.219 104.852 111.724C101.948 108.767 98.6813 106.549 96.685 104.978C95.959 104.424 94.3257 103.407 94.3257 103.407C94.3257 103.407 87.7016 96.6614 85.3424 91.3016C83.709 87.6051 82.6202 84.9252 83.0739 80.8592C83.1646 79.9351 83.5276 78.1793 83.709 78.1793L84.8887 78.5489C84.9794 78.6413 86.0683 79.6578 87.0664 80.0275C87.6109 80.2123 88.609 80.3971 88.609 80.3971C88.609 80.3971 89.4257 80.4895 89.8794 80.5819C90.3331 80.7668 91.1498 81.044 91.6942 81.3212C92.2387 81.5985 93.0553 82.1529 93.0553 82.1529L94.5979 83.3543L96.2313 84.648C96.2313 84.648 97.1387 85.2949 97.4109 85.3873C97.6831 85.4797 97.8646 85.5721 97.9553 85.5721H98.3183C98.3183 85.5721 98.6813 85.4797 98.772 85.1101C98.8627 84.648 98.3183 85.0177 97.5016 84.0935C96.5942 83.2618 96.2313 82.5226 96.2313 82.5226C96.2313 82.5226 96.0498 81.7833 95.3239 80.9516C94.5979 80.1199 93.6905 79.3806 93.6905 79.3806C93.6905 79.3806 93.0553 78.9185 92.1479 78.6413C91.2405 78.3641 90.9683 78.3641 90.8776 77.9944C90.7868 77.6248 91.9664 77.8096 91.9664 77.8096C91.9664 77.8096 93.3276 77.9944 94.4164 78.5489C95.5053 79.1034 96.1405 79.7502 96.1405 79.7502L96.8664 80.3971L97.3201 80.8592L97.7738 81.1364C97.7738 81.1364 98.2276 81.5984 98.3183 80.9516C98.409 80.3971 98.2276 79.9351 98.1368 79.8426L97.6831 79.3806L95.8683 77.8096C95.3239 77.2551 94.9609 76.8855 94.4164 76.5159C93.872 76.1462 93.0553 75.5918 92.0572 75.2221C91.1498 74.8525 90.6053 74.9449 89.6979 74.4828C89.0628 74.2056 88.5183 74.0208 88.1553 73.4663C88.0646 73.3739 87.6109 73.0042 88.4276 73.1891C89.2442 73.3739 89.7887 73.6511 90.6961 73.836C92.1479 74.2056 93.0553 74.2056 94.4164 74.6676C94.9609 74.8525 95.6868 75.2221 95.6868 75.2221L97.4109 75.9614C97.4109 75.9614 99.7701 77.2551 101.403 77.3476C103.037 77.44 104.398 77.0703 104.942 76.7931C105.487 76.6083 106.485 75.9614 106.757 75.6842C107.029 75.4069 107.211 75.1297 107.211 75.1297L107.392 74.6676V74.298C106.939 73.7435 106.031 75.2221 104.579 75.4993C103.037 75.7766 103.128 75.9614 102.129 75.7766C101.041 75.5918 100.405 75.3145 99.5887 74.4828C98.1368 73.0967 97.5924 71.8029 95.6868 70.9712C94.8702 70.6016 93.4183 70.2319 93.4183 70.2319C93.4183 70.2319 91.422 69.5851 90.3331 68.9382C89.5164 68.4761 87.7924 68.1989 88.3368 67.4596C88.609 67.09 90.7868 68.3837 92.4202 68.5685C93.5998 68.7534 94.4165 68.661 95.3239 68.661C96.2313 68.661 97.5016 68.3837 97.6831 68.3837C97.8646 68.2913 98.5905 68.3837 99.2257 68.5685C99.8609 68.7534 100.224 69.0306 100.859 69.3078C101.494 69.5851 102.22 70.0471 102.402 70.0471L102.765 70.1395L102.946 69.9547L103.037 69.7699L102.946 69.5851L102.674 69.4002L102.129 69.0306C102.129 69.0306 101.313 68.5685 100.587 67.8293C99.8609 67.09 99.2257 66.2583 98.1368 65.8886C97.0479 65.519 95.7776 65.3342 95.7776 65.3342L94.5072 65.2418L93.9627 65.1493C93.9627 65.1493 93.0553 64.8721 93.7813 64.6873C94.5072 64.5025 94.8701 64.4101 95.0516 64.4101C95.1424 64.3176 96.4127 64.2252 97.1387 64.5025C97.8646 64.7797 99.0442 65.4266 99.135 65.4266C99.2257 65.519 100.315 66.3507 101.494 66.6279C102.674 66.9052 104.216 66.9976 104.216 66.9976L104.942 66.8127L105.305 66.7203L105.578 66.5355L105.487 66.0734C105.487 66.0734 105.487 65.7038 104.942 65.6114C104.398 65.519 103.309 65.3342 102.311 64.5949C101.313 63.8556 100.587 63.1163 100.587 63.1163C100.587 63.1163 99.8609 62.4694 98.409 62.0998C97.0479 61.7301 96.5942 61.7301 96.5942 61.7301L96.1405 61.5453L95.1424 61.0833C95.1424 61.0833 94.6887 60.806 94.3257 60.344C93.9627 59.8819 93.4183 59.0502 94.9609 59.5123C96.5035 59.9743 96.8664 60.2516 96.8664 60.2516C96.8664 60.2516 97.6831 61.0833 98.409 61.1757C98.8627 61.2681 99.2257 61.3605 99.4979 60.9909C99.9516 60.5288 98.6813 59.9743 97.7738 59.3275C97.0479 58.8654 96.322 57.6641 96.322 57.6641C96.322 57.6641 95.7776 57.202 96.5942 57.3868C97.4109 57.5717 98.8627 58.4958 98.8627 58.4958C98.8627 58.4958 99.5887 58.8654 99.9516 58.9578C100.224 59.0502 100.95 59.5123 101.313 59.6971C101.585 59.7895 102.402 59.9743 102.946 60.2516C103.672 60.7136 104.035 61.4529 104.398 61.7301C104.761 62.0074 105.033 62.4694 105.487 62.5618C105.941 62.6543 106.031 62.8391 106.303 62.6543C106.576 62.4694 106.666 62.377 106.666 62.377C106.666 62.377 106.757 62.1922 106.303 61.915C105.85 61.6377 105.305 60.8985 105.305 60.8985L105.124 60.5288L105.033 60.1592L104.579 59.4199L103.763 58.2185C103.763 58.2185 102.492 56.4627 101.313 55.8159C100.224 55.169 99.4072 54.7993 99.4072 54.7993C99.4072 54.7993 98.8627 54.5221 98.5905 54.3373C98.1368 53.9676 97.9553 53.6904 97.5924 53.2284C97.1387 52.6739 96.9572 52.3043 96.4127 51.7498C95.4146 50.7333 92.3294 50.1788 93.509 49.4395C94.1442 49.0699 94.9609 49.2547 95.3239 49.3471C95.6868 49.4395 96.5035 49.8092 97.3201 50.0864C97.8646 50.2712 98.2276 50.2712 98.772 50.456C99.3165 50.6409 99.9516 50.7333 100.224 50.9181C100.496 51.1029 100.768 51.4726 100.95 51.565C101.041 51.6574 101.766 52.8587 103.037 53.5056C104.307 54.1525 104.942 54.6145 106.213 54.7069C107.211 54.7993 108.844 54.4297 108.844 54.4297C108.844 54.4297 109.298 54.2449 108.935 53.7828C108.481 53.3208 108.481 53.2284 108.118 53.1359C106.666 52.5815 105.487 52.7663 104.398 51.6574C103.944 51.1953 103.763 51.1029 103.4 50.3636C103.037 49.6243 103.218 49.4395 102.946 48.9775C102.765 48.5154 102.311 47.8685 102.311 47.8685C102.311 47.8685 100.95 46.2051 99.4979 45.3734C97.9553 44.5417 96.8664 43.7101 96.685 43.5252C96.4127 43.3404 95.8683 42.6011 95.8683 42.6011L95.4146 41.8618L95.1424 41.3074C94.9609 40.2909 96.7757 41.5846 97.7738 41.9543C99.4072 42.5087 100.224 43.248 101.857 43.8025C102.765 44.0797 103.309 44.0797 104.216 44.4493C105.759 45.0962 106.213 46.6672 107.846 46.852C108.753 46.9444 110.568 47.3141 110.205 46.4824C109.842 45.5583 108.028 45.5583 107.12 44.4493C106.666 43.9873 106.666 43.5252 106.213 43.0632C105.487 42.1391 103.763 41.3074 103.763 41.3074C103.763 41.3074 103.218 40.8453 102.583 39.5516C102.039 38.2578 100.678 37.3337 98.2276 36.1324C96.5942 35.3007 93.3276 35.1159 94.5979 34.2842C95.3239 33.7297 95.959 33.8221 96.9572 34.0993C97.9553 34.469 98.3183 34.931 99.135 35.3007C99.9516 35.6703 100.315 35.7627 100.496 35.8551C100.678 35.9476 101.313 36.2248 101.585 36.2248C101.766 36.3172 103.128 36.502 103.491 36.5944L105.305 37.0565L106.757 37.611C106.757 37.611 107.483 37.8882 107.937 37.8882C108.391 37.8882 109.116 37.7034 109.116 37.7034L109.661 37.3337L109.752 37.1489C109.752 37.1489 110.024 36.6868 109.298 36.5944C108.663 36.502 108.3 36.502 108.209 36.502L107.574 36.3172L107.302 36.2248C107.302 36.2248 106.031 35.2083 104.942 34.7462C103.763 34.2842 103.581 34.1918 103.581 34.1918L103.128 34.0993L102.583 34.0069C102.583 34.0069 102.129 34.0069 101.403 33.3601C100.678 32.7132 100.405 32.3435 99.7701 31.6967L98.9535 30.865C98.9535 30.865 98.2276 30.3105 98.2276 29.8484C98.3183 29.1092 99.8609 30.6801 99.8609 30.6801L100.95 31.4194C100.95 31.4194 101.857 32.0663 103.491 32.1587C105.124 32.2511 107.12 31.6967 107.12 31.6967C107.12 31.6967 107.392 31.5118 108.3 31.7891C109.207 32.0663 109.933 32.6208 109.933 32.6208L110.659 33.2676L111.748 34.469L111.929 34.3766C112.02 34.2842 112.474 33.8221 111.657 32.8056C110.841 31.7891 109.479 30.865 109.479 30.865C109.479 30.865 107.665 29.756 105.85 29.3864C104.035 29.0168 103.218 29.0168 103.218 29.0168C103.218 29.0168 101.857 29.0168 101.041 28.0926C100.224 27.1685 99.6794 26.2444 99.6794 26.2444L99.4072 24.9507C99.4072 24.9507 98.9535 24.3962 98.0461 24.0266C97.2294 23.6569 96.322 23.1025 96.322 23.1025C96.322 23.1025 94.9609 22.6404 94.8701 21.9935C94.5979 20.7922 97.1387 21.9935 98.4998 22.2708C99.7702 22.548 100.315 23.0101 101.585 23.2873C102.674 23.5645 103.309 23.6569 104.489 23.5645C105.124 23.5645 105.487 23.4721 106.122 23.3797C106.757 23.3797 107.211 23.2873 107.846 23.3797C108.753 23.5645 109.116 24.0266 110.024 24.3962C110.568 24.6735 110.841 24.9507 111.476 25.0431C112.02 25.1355 113.109 25.5051 112.928 24.9507L112.655 24.581C112.202 23.9342 111.657 23.9342 111.113 23.4721C109.933 22.548 109.389 21.8087 108.028 21.1618C107.12 20.6998 106.576 20.515 105.578 20.3301C104.852 20.2377 104.307 20.4226 103.581 20.2377C102.765 19.9605 102.492 19.5909 101.676 19.1288C100.405 18.3895 99.6794 17.7426 98.3183 17.1882C97.4109 16.8185 95.8683 16.4489 95.8683 16.4489L95.2331 16.3565L94.9609 16.2641C93.6905 15.802 97.2294 14.7855 98.8627 14.3235C99.6794 14.1386 100.042 13.9538 100.859 14.0462C101.585 14.1386 102.402 15.1551 103.218 14.6931C104.398 14.0462 101.857 12.2904 101.041 12.0132C99.9516 11.5511 98.0461 11.9208 98.0461 11.9208L93.872 11.8284L92.6924 11.6435C92.6924 11.6435 91.9664 11.6435 91.422 10.9967C90.8776 10.3498 88.7905 7.76229 86.4313 7.39265C83.9813 7.02301 83.2553 7.39265 83.0739 7.20783C80.9868 3.88104 78.809 3.14176 77.1757 1.57077C76.722 1.10872 75.9961 0.0922022 75.8146 0.184613C75.6331 0.277024 75.3609 1.66318 74.9072 2.86452C74.3627 4.25068 74.7257 4.89756 74.9979 5.45202C75.3609 6.00649 75.8146 6.37613 74.9072 6.93059C73.9998 7.48506 72.8201 7.30024 72.8201 7.30024C72.8201 7.30024 71.822 7.11542 71.0053 6.65336C70.1887 6.28372 68.4646 5.54443 68.4646 5.54443C68.4646 5.54443 66.8313 5.08238 65.7424 5.17479C64.6535 5.2672 64.5627 5.35961 63.7461 5.45202C63.2924 5.45202 63.1109 5.45202 62.6572 5.54443C62.2942 5.63685 61.8405 5.35961 61.8405 5.82167C61.8405 6.28372 62.7479 6.28372 63.3831 6.56095C64.0183 6.83818 65.4702 6.83818 65.1979 7.20783C64.835 7.57747 63.4739 7.66988 63.3831 7.57747C63.2924 7.57747 62.385 7.39265 61.659 7.39265C60.4794 7.48506 60.3887 7.48506 58.6646 8.31676C58.3924 8.40917 58.4831 9.05604 59.0276 8.87122C59.6627 8.6864 60.5702 8.50158 61.5683 8.50158C62.6572 8.50158 63.2924 8.87122 64.3813 9.14845C65.2887 9.42568 65.3794 9.61051 66.7405 9.79533C67.0127 9.79533 67.5572 9.61051 67.5572 9.98015C67.5572 10.165 67.1942 10.4422 67.1942 10.4422C67.1942 10.4422 66.3776 10.627 66.4683 10.9043C66.6498 11.2739 67.3757 10.9043 67.7387 10.9043C68.1016 10.9043 68.6461 10.9967 68.5553 11.3663L68.3739 11.6435C67.3757 11.9208 66.8313 12.1056 65.9239 12.4752C63.6553 13.3993 62.7479 14.5083 60.5701 15.6172C58.4831 16.6337 55.1257 17.9275 55.1257 17.9275C55.1257 17.9275 54.1276 18.4819 52.6757 18.8516C51.2239 19.2212 51.1331 19.1288 50.135 19.3136C49.1368 19.406 48.6831 19.5909 47.8664 20.0529C47.322 20.3301 47.0498 20.6074 46.5961 21.0694L45.3257 23.0101L44.5998 24.119C44.4183 24.4886 44.2368 24.6735 44.1461 25.0431C43.9646 25.5051 43.8739 25.69 43.7831 26.152C43.5109 27.261 43.7831 27.9078 43.9646 29.0168C44.0553 29.294 44.0553 29.4788 44.1461 29.756C44.2368 30.0333 44.5998 30.3105 44.5998 30.3105L44.9627 30.4029C44.9627 30.4029 46.2331 30.3105 47.0498 30.1257C47.8664 29.9409 49.0461 29.6636 49.0461 29.6636L50.5887 29.2016L51.5868 28.8319C51.5868 28.8319 52.222 28.8319 52.3127 29.2016C52.4035 29.4788 52.1313 29.9409 52.1313 29.9409C52.1313 29.9409 51.5868 30.2181 51.1331 30.4029C50.6794 30.5877 49.5905 30.865 49.4998 30.9574L48.3201 31.327L47.322 31.4194C47.322 31.4194 47.1405 31.5118 46.959 31.7891C46.7776 32.0663 46.7776 32.0663 46.7776 32.2511C46.959 32.436 47.0498 32.6208 47.2313 32.8056C47.5942 33.0828 47.7757 33.2676 48.2294 33.3601C48.8646 33.6373 49.2276 33.5449 49.8627 33.5449C50.7701 33.5449 51.3146 33.3601 52.1313 32.9904C52.8572 32.5284 53.1294 32.5284 54.1276 32.1587C54.3998 32.0663 54.9442 31.9739 55.1257 31.9739C56.8498 31.7891 57.8479 32.0663 59.572 32.3435C61.2961 32.6208 62.1127 33.1752 63.8368 33.4525C65.6516 33.7297 66.7405 34.2842 68.6461 33.8221C69.5535 33.6373 70.0979 33.1752 70.5516 34.0993C71.0053 34.931 70.9146 35.3931 70.9146 35.3931C70.9146 35.3931 70.9146 35.9476 70.2794 37.7034C69.6442 39.4592 67.6479 43.8025 67.6479 43.8025L66.2868 46.5748C66.2868 46.5748 65.1979 48.7926 62.6572 51.6574C60.1165 54.5221 59.935 54.7069 59.935 54.7069C59.935 54.7069 58.5738 55.7235 57.2127 57.4793C55.8516 59.2351 55.8516 59.8819 54.5813 61.1757C53.7646 62.0074 53.3109 62.4694 52.3127 63.1163C51.3146 63.7632 50.135 63.5784 46.959 65.7962C44.2368 67.7368 42.785 69.3078 42.6035 69.2154C42.422 69.123 41.5146 68.3837 41.1516 68.1989C40.8794 68.0141 35.6164 64.4101 35.6164 64.4101L33.4387 62.9315L32.4405 62.2846L32.259 61.915L31.7146 61.1757C31.7146 61.1757 30.8979 60.1592 29.8998 59.3275C28.9016 58.4034 27.8127 57.6641 26.1794 57.2944C24.6368 56.8324 23.6387 56.5551 22.0961 57.1096C21.0979 57.4793 20.5535 57.8489 19.8276 58.5882C18.9202 59.5123 18.7387 60.2516 18.0127 61.3605C17.2868 62.4694 16.5609 63.486 16.1979 64.0404C15.835 64.5949 15.109 66.0734 15.109 66.0734C15.109 66.0734 13.2942 69.0306 12.2961 70.9712C11.1164 73.0967 10.6627 74.3904 9.57385 76.4234C7.84978 79.6578 5.39978 82.9846 4.7646 84.4632C4.12941 85.9418 4.03867 86.1266 4.03867 86.1266C4.03867 86.1266 3.85719 86.9583 3.76645 87.5127C3.67571 88.0672 3.67571 88.9913 3.58497 89.3609C3.49423 89.823 3.222 90.2851 3.13126 90.3775C3.04052 90.4699 2.04237 92.5953 1.67941 93.9815C1.31645 95.3676 0.499781 99.7109 1.49793 100.265C2.49608 100.82 9.84608 97.5855 10.8442 94.4435C11.4794 92.4105 8.84793 91.394 9.57385 89.5458C9.84608 88.8989 10.0276 88.8065 10.4813 88.1596C11.2072 86.9583 10.935 84.4632 12.2961 82.1529C13.2942 80.4895 15.2905 78.3641 18.0127 75.2221C19.7368 73.2815 21.3702 70.1395 21.3702 70.1395C21.3702 70.1395 21.7331 69.0306 22.459 69.2154C23.2757 69.4002 24.0016 69.3078 24.0016 69.3078L24.3646 69.5851L25.0905 70.3243L26.1794 71.9877C26.1794 71.9877 27.9942 74.6676 28.6294 75.4069C29.2646 76.1462 29.8998 76.7007 30.8072 77.44C31.8053 78.3641 32.1683 78.8261 33.4387 79.8426C35.2535 81.3212 34.6183 81.8757 32.259 80.5819C31.4424 80.1199 30.172 79.6578 29.1739 79.3806C28.085 79.1034 24.0016 77.9944 21.9146 77.7172C19.9183 77.44 19.5553 77.5324 19.5553 77.5324C19.5553 77.5324 18.5572 77.44 17.3776 78.1793C16.1979 78.9185 15.5627 79.473 15.5627 79.473C15.5627 79.473 14.2016 81.044 14.1109 81.3212C14.0202 81.5985 13.385 82.7074 13.385 82.7074C13.385 82.7074 13.022 83.2618 12.9313 83.9087C12.7498 84.5556 12.8405 85.2025 12.8405 85.2025L12.9313 86.5886L13.022 87.8824C13.022 87.8824 13.2942 91.1168 13.9294 94.3511C14.1109 95.2752 14.2924 96.7538 14.2924 96.7538L14.7461 100.081C14.7461 100.081 15.0183 103.592 15.2905 104.794C15.5627 105.902 15.7442 105.995 15.9257 106.734C16.2887 108.12 15.6535 108.767 16.2887 110.431C16.9239 112.094 17.4683 111.909 18.1035 112.926C18.5572 113.665 18.7387 113.85 19.1016 114.774C19.4646 115.698 20.6442 118.748 22.0053 120.965C23.4572 123.276 25.3627 126.14 26.6331 125.863C27.9035 125.586 28.8109 123.553 28.8109 123.553C28.8109 123.553 30.2627 119.579 29.3553 115.698C28.4479 111.724 24.2739 113.573 23.7294 110.708C23.6387 110.061 23.7294 109.044 23.7294 109.044C23.7294 109.044 23.6387 107.843 23.4572 107.473C23.2757 107.104 21.8239 104.331 21.2794 102.021C20.8257 100.265 20.9164 94.6284 20.5535 93.0574C19.5553 88.9913 19.4646 89.361 20.009 88.6217C20.6442 87.8824 21.1887 88.0672 21.1887 88.0672L22.0053 88.1596L22.6405 88.4368C22.6405 88.4368 23.3664 88.8989 23.8202 89.1761C24.1831 89.4534 25.4535 90.4699 25.4535 90.4699L28.5387 92.5029C28.5387 92.5029 30.2627 93.5194 30.9887 93.8891C31.7146 94.2587 32.3498 94.7208 32.3498 94.7208L33.1664 95.2752L34.5276 96.2918L34.7998 96.569L34.9813 96.9386C34.9813 96.9386 35.6164 98.4172 38.3387 99.9882C40.5164 101.282 42.422 100.912 43.2387 101.929C43.4201 102.114 44.9627 104.239 45.6887 105.533C46.5961 107.011 47.685 108.767 48.0479 109.322C48.4109 109.876 50.6794 112.741 50.6794 112.741L53.6739 116.068L57.5757 119.764L61.1146 122.814L63.3831 124.662C63.3831 124.662 65.3794 126.602 67.6479 128.173C69.8257 129.652 69.9164 129.837 71.3683 130.853C72.4572 131.593 73.909 132.609 75.3609 133.718C76.8127 134.919 78.4461 137.137 77.8109 137.877C77.3572 138.154 76.5405 136.952 74.9979 135.566C73.7276 134.457 73.0924 133.903 71.822 132.979C70.1887 131.685 69.372 131.038 67.5572 129.929C66.6498 129.375 65.0164 128.358 64.9257 128.543C64.2905 130.484 64.3813 132.332 64.472 134.735C64.5627 136.398 64.835 138.061 65.3794 140.187C65.8331 142.22 66.2868 143.329 67.0127 145.269C67.7387 147.21 69.0998 150.26 69.0998 150.26L71.1868 154.51L73.0924 157.745L74.0905 159.408L74.4535 159.963C74.4535 159.963 74.9072 161.072 74.4535 161.811C73.9998 162.55 73.4553 164.121 72.6387 164.214C71.822 164.398 69.9164 164.491 69.9164 164.491L59.1183 164.306L53.4924 163.844C53.4924 163.844 52.8572 163.474 49.5905 163.474C47.685 163.474 46.1424 164.306 45.0535 164.398C44.1461 164.491 39.6998 164.121 36.7053 165.323C33.8924 166.524 32.622 166.801 31.6239 168.649C30.8979 170.036 35.1627 172.253 38.7016 173.085C44.4183 174.379 42.785 171.884 44.9627 170.313C45.235 170.128 45.3257 169.943 45.5979 169.851C47.0498 169.389 47.8664 170.59 49.3183 170.59C50.9516 170.59 51.859 170.035 53.4924 169.758C61.7498 168.649 74.635 172.623 74.635 172.623C74.635 172.623 77.8109 173.64 79.2627 173.362C80.9868 172.993 80.6239 172.346 81.1683 171.329C81.622 170.498 81.4405 170.313 81.5313 169.389C81.5313 168.834 81.4405 168.557 81.3498 168.002C80.9868 166.431 79.9887 164.214 79.9887 164.214C79.9887 164.214 79.2627 162.55 78.9905 161.719C78.6276 160.517 78.2646 159.778 78.0831 158.484C77.5387 155.065 77.6294 155.342 77.6294 153.402C77.6294 149.89 77.9924 147.949 78.8998 144.53C80.2609 139.54 82.8016 137.415 84.7072 132.609C85.2516 131.315 85.2516 129.467 85.8868 129.282C86.6127 129.19 86.522 131.593 86.159 132.979C84.9794 137.784 82.0757 139.817 80.7146 144.715C79.7165 148.504 79.172 150.722 79.4442 154.603C79.535 156.728 80.3516 160.055 80.3516 160.055C80.3516 160.055 81.4405 163.752 81.985 165.138C82.5294 166.524 83.6183 168.834 83.6183 168.834L86.0683 173.27L87.3387 175.395C87.3387 175.395 88.2461 176.227 87.7924 177.613C87.3387 178.999 86.4313 179.831 85.3424 181.032C82.2572 184.729 75.0887 190.181 73.2739 191.475C70.7331 193.415 70.8239 193.97 70.6424 194.524C69.6442 197.481 66.7405 197.574 63.5646 201.086C62.8387 201.825 60.9331 203.858 61.2961 205.614C61.4776 206.26 69.2813 207.647 73.8183 205.706C77.3572 204.135 74.272 202.379 75.2701 200.623C75.9961 199.33 77.8109 199.33 78.6276 198.221C79.9887 196.373 79.0813 196.465 80.2609 194.986C84.1628 190.181 86.7035 187.409 93.6905 183.065C94.3257 182.696 95.5053 182.141 95.5053 182.141C95.5053 182.141 96.5035 181.679 96.8664 181.125C97.3202 180.385 97.2294 179.739 97.2294 178.907C97.2294 178.352 97.1387 178.075 97.1387 177.521C97.1387 176.874 97.2294 176.504 97.0479 175.857C96.8664 174.841 96.2313 174.009 95.8683 173.455C95.5053 172.993 94.8701 172.161 94.5072 170.405C94.0535 168.649 94.0535 167.171 94.7794 165.23C95.5053 163.29 97.1387 161.719 97.1387 161.719L101.222 158.946C101.222 158.946 104.761 156.359 105.85 155.342C107.029 154.326 109.298 152.2 110.931 149.798C112.837 147.118 113.835 145.454 114.652 142.22C114.924 141.019 115.196 139.17 115.196 139.17C115.196 139.17 115.196 137.877 115.922 137.784C116.648 137.692 116.829 137.969 116.829 137.969C116.829 137.969 117.465 138.339 117.646 140.187C117.737 142.035 117.192 144.16 117.192 144.16C117.192 144.16 116.648 146.286 116.466 147.58C116.376 148.411 116.376 148.873 116.376 149.798C116.376 151.369 117.011 152.662 117.011 152.662C117.011 152.662 117.374 152.94 117.374 152.293C117.374 151.553 117.555 150.444 117.828 149.335C118.1 148.411 118.281 148.596 118.826 147.025C119.552 144.992 118.916 145.177 119.279 143.976C119.461 143.421 119.915 142.867 120.459 142.867C121.003 142.867 121.094 143.606 121.094 143.606C121.094 143.606 121.639 146.009 121.185 148.227C120.731 150.444 119.098 153.494 119.098 153.494L117.828 155.712C117.828 155.712 116.92 157.283 116.557 158.299C116.194 159.408 116.103 159.87 116.285 160.887C116.557 161.996 117.374 163.474 117.828 163.197C118.191 162.92 117.283 161.996 118.372 159.778C119.461 157.56 120.913 156.174 120.913 156.174C120.913 156.174 122.909 153.771 123.816 151.923C124.633 150.26 125.45 147.58 125.45 147.58C125.45 147.58 126.085 145.177 125.903 143.144C125.813 141.203 125.45 140.187 125.45 140.187L124.633 138.708L124.179 137.599L124.361 136.952C124.542 136.86 125.178 137.322 125.722 138.061C126.266 138.801 126.811 139.725 127.083 141.019C127.355 141.943 127.446 142.774 127.446 143.606C127.446 144.345 127.174 147.395 128.263 149.335C128.716 150.26 129.805 152.385 129.896 151.461C130.078 149.335 129.17 148.319 129.261 146.378C129.352 144.16 129.896 144.715 130.078 143.606C130.259 142.405 130.531 142.127 130.35 140.556C130.168 139.078 129.533 137.137 129.533 137.137L128.898 135.659L128.626 135.104C128.626 135.104 128.807 134.827 129.079 134.827L131.257 134.088C131.257 134.088 134.07 132.794 135.159 131.87C136.339 131.038 137.7 129.56 137.7 129.56C137.7 129.56 139.515 127.249 140.422 125.586C142.6 121.427 142.6 116.16 142.509 113.757C142.418 111.447 141.783 108.398 141.783 108.398C141.783 108.398 141.057 104.701 141.239 102.298C141.42 99.8958 141.602 98.7868 141.602 98.7868C141.602 98.7868 141.511 96.3842 143.507 93.7967C145.503 91.2092 146.411 89.5458 146.774 87.6051C147.137 85.9418 146.592 83.2618 145.866 84.2784ZM85.7961 67.6444C85.5239 67.6444 85.1609 67.2748 85.1609 67.2748C85.1609 67.2748 85.0701 67.1824 85.3424 66.9976C85.6146 66.8127 85.9776 66.9052 85.9776 66.9052L86.2498 66.9976L86.7035 67.6444C86.6127 67.9217 86.0683 67.7368 85.7961 67.6444ZM86.885 64.5949C86.6127 64.5025 86.159 64.2252 86.159 64.2252C86.159 64.2252 86.0683 64.0404 86.3405 63.8556C86.6127 63.6708 87.0664 63.7632 87.0664 63.7632L87.3387 63.948C87.4294 64.0404 87.8831 64.5025 87.8831 64.6873C87.8831 64.9645 87.2479 64.6873 86.885 64.5949ZM87.8831 61.4529C87.5202 61.3605 86.9757 60.9909 86.9757 60.9909C86.9757 60.9909 86.885 60.806 87.2479 60.6212C87.6109 60.4364 88.1553 60.5288 88.1553 60.5288L88.5183 60.7136C88.6998 60.8984 89.1535 61.3605 89.1535 61.6377C89.0627 61.915 88.2461 61.5453 87.8831 61.4529ZM88.6998 58.5882C88.3368 58.4958 87.7924 58.1261 87.7924 58.1261C87.7924 58.1261 87.7016 57.9413 88.0646 57.7565C88.4276 57.5717 88.972 57.6641 88.972 57.6641L89.335 57.8489C89.5164 58.0337 89.9701 58.4958 89.9701 58.773C89.8794 58.9578 89.0627 58.5882 88.6998 58.5882ZM89.5164 55.169C89.0627 55.0766 88.5183 54.6145 88.5183 54.6145C88.5183 54.6145 88.4276 54.4297 88.7905 54.1525C89.1535 53.8752 89.7887 54.0601 89.7887 54.0601L90.1516 54.2449C90.3331 54.4297 90.8776 54.9842 90.8776 55.2614C90.8776 55.631 89.8794 55.169 89.5164 55.169ZM90.0609 51.4726C89.5164 51.3801 88.7905 50.8257 88.7905 50.8257C88.7905 50.8257 88.609 50.5485 89.1535 50.2712C89.6072 49.994 90.3331 50.0864 90.3331 50.0864L90.7868 50.3636C90.9683 50.5485 91.6035 51.2877 91.6942 51.6574C91.6942 52.027 90.6053 51.565 90.0609 51.4726ZM90.4239 47.7761C89.7887 47.6837 88.8813 46.9444 88.8813 46.9444C88.8813 46.9444 88.6998 46.6672 89.2442 46.2976C89.7887 45.9279 90.6961 46.1127 90.6961 46.1127C90.6961 46.1127 90.9683 46.2051 91.2405 46.39C91.5127 46.6672 92.2387 47.4989 92.3294 47.9609C92.4202 48.423 91.059 47.8685 90.4239 47.7761ZM90.9683 43.5252C90.2424 43.4328 89.2442 42.6011 89.2442 42.6011C89.2442 42.6011 89.0628 42.2315 89.6979 41.8618C90.3331 41.3998 91.3313 41.677 91.3313 41.677C91.3313 41.677 91.6942 41.7694 91.9664 42.0467C92.2387 42.3239 93.1461 43.3404 93.2368 43.8025C93.2368 44.3569 91.6942 43.6176 90.9683 43.5252ZM90.6053 26.3368C90.0609 26.2444 89.335 25.69 89.335 25.69C89.335 25.69 89.1535 25.5051 89.6979 25.2279C90.2424 24.9507 90.9683 25.1355 90.9683 25.1355C90.9683 25.1355 91.2405 25.2279 91.422 25.4127C91.6035 25.5976 92.3294 26.2444 92.3294 26.6141C92.3294 26.8913 91.1498 26.4293 90.6053 26.3368ZM92.6016 30.4953C92.6924 30.865 91.422 30.4029 90.7868 30.3105C90.2424 30.2181 89.4257 29.5712 89.4257 29.5712C89.4257 29.5712 89.2442 29.294 89.7887 29.0168C90.3331 28.6471 91.059 28.8319 91.059 28.8319C91.059 28.8319 91.3313 28.9243 91.6035 29.1092C91.8757 29.3864 92.5109 30.1257 92.6016 30.4953ZM89.9701 37.3337C90.5146 36.9641 91.422 37.1489 91.422 37.1489C91.422 37.1489 91.6942 37.2413 91.9664 37.4261C92.2387 37.7034 92.9646 38.5351 93.0553 38.9971C93.1461 39.4592 91.785 38.9047 91.1498 38.7199C90.5146 38.6275 89.6072 37.8882 89.6072 37.8882C89.6072 37.8882 89.4257 37.7034 89.9701 37.3337ZM91.1498 34.1918C90.5146 34.0993 89.6072 33.3601 89.6072 33.3601C89.6072 33.3601 89.4257 33.0828 89.9701 32.7132C90.5146 32.3435 91.422 32.5284 91.422 32.5284C91.422 32.5284 91.6942 32.6208 91.9664 32.8056C92.2387 33.0828 92.9646 33.9145 93.0553 34.3766C93.1461 34.931 91.785 34.3766 91.1498 34.1918ZM92.3294 20.3301C93.0553 20.515 93.2368 20.977 92.8739 20.977C92.5109 21.0694 92.3294 21.0694 92.0572 21.0694C91.2405 21.0694 91.3313 20.6998 90.2424 21.2543C89.1535 21.8087 89.9702 21.5315 88.4276 22.086C86.9757 22.6404 87.3387 21.1618 87.3387 21.1618C87.3387 21.1618 87.4294 20.8846 87.6109 20.1453C87.7924 19.406 88.6998 20.1453 89.335 20.1453C90.5146 20.1453 91.5127 20.1453 92.3294 20.3301ZM88.2461 14.6007L88.6998 14.8779C88.8813 15.0627 89.5164 15.802 89.6072 16.1717C89.6979 16.5413 88.5183 16.0793 88.0646 15.9868C87.5202 15.8944 86.7942 15.34 86.7942 15.34C86.7942 15.34 86.6127 15.0627 87.1572 14.7855C87.6109 14.4159 88.2461 14.6007 88.2461 14.6007ZM84.9794 10.165C85.4331 9.88774 86.159 9.98015 86.159 9.98015L86.6127 10.2574C86.7942 10.4422 87.4294 11.1815 87.5202 11.5511C87.6109 11.9208 86.4313 11.4587 85.9776 11.3663C85.4331 11.2739 84.7072 10.7194 84.7072 10.7194C84.7072 10.7194 84.5257 10.4422 84.9794 10.165ZM84.072 70.0471C84.3442 69.8623 84.7072 69.9547 84.7072 69.9547L84.9794 70.0471L85.4331 70.694C85.4331 70.8788 84.8887 70.6016 84.6164 70.6016C84.3442 70.6016 83.9813 70.2319 83.9813 70.2319C83.9813 70.2319 83.7998 70.1395 84.072 70.0471ZM47.685 26.0596C47.4127 26.2444 47.2313 26.3368 46.8683 26.6141C46.4146 26.9837 45.9609 27.9078 45.6887 27.6306C45.3257 27.3534 45.5072 26.3368 45.5072 26.3368C45.5072 26.3368 45.7794 25.5976 46.1424 24.8583C46.5961 24.119 47.1405 24.119 47.1405 24.119C47.685 24.119 48.6831 24.4886 48.6831 25.3203C48.7738 26.152 48.1387 25.7824 47.685 26.0596ZM55.1257 28.9243C55.1257 28.9243 54.7627 29.0168 54.672 28.3699C54.5813 27.723 55.1257 27.6306 55.1257 27.6306C55.1257 27.6306 56.2146 27.0761 56.2146 27.8154C56.3053 28.4623 55.1257 28.9243 55.1257 28.9243ZM64.835 16.3565C64.835 16.3565 63.6553 18.2971 62.022 19.0364C60.3887 19.7757 59.2998 20.1453 56.2146 20.4226C55.7609 20.4226 55.9424 20.1453 55.9424 20.1453C55.9424 20.1453 59.4813 19.1288 61.4776 18.0199C62.5664 17.373 63.8368 16.5413 64.1998 16.1717C65.4701 15.0627 64.835 16.3565 64.835 16.3565ZM3.85719 96.3842C3.85719 96.8462 3.31274 97.6779 3.13126 97.6779C2.94978 97.6779 2.58682 96.8462 2.67756 96.3842C2.7683 95.9221 2.85904 94.6284 3.58497 94.8132C4.12941 94.9056 3.85719 95.9221 3.85719 96.3842ZM6.21645 85.9418C6.21645 85.9418 5.39978 87.6976 5.12756 86.9583C4.85534 86.3114 5.39978 85.1101 5.39978 85.1101C6.12571 84.4632 6.39793 83.5391 6.76089 83.9087C7.03311 84.2784 6.21645 85.9418 6.21645 85.9418ZM17.4683 67.9217C16.6516 68.8458 14.1109 73.7435 13.5664 72.9118C13.022 72.265 16.0164 67.6444 16.6516 66.7203C17.2868 65.7038 17.8313 65.8886 17.8313 65.8886L18.0127 66.0734C17.922 66.0734 18.285 66.9976 17.4683 67.9217ZM24.2739 60.6212C24.2739 60.6212 22.459 60.9909 22.7313 60.344C23.0942 59.6971 24.3646 59.4199 24.3646 59.4199C25.3627 59.6047 25.5442 59.6971 25.4535 60.1592C25.5442 60.6212 24.2739 60.6212 24.2739 60.6212ZM31.6239 73.5587C30.8072 74.3904 30.535 73.2815 29.3553 71.8953C28.1757 70.6016 28.4479 69.4926 28.4479 69.4926H28.6294L28.8109 69.5851L29.2646 69.7699L29.5368 70.0471L30.4442 70.9712C30.8072 71.5257 31.8053 73.3739 31.6239 73.5587ZM17.559 101.19C17.2868 101.19 17.0146 100.635 17.0146 100.635C17.0146 100.635 16.2887 99.5261 16.0164 98.6944C15.7442 97.9552 15.6535 96.7538 15.6535 96.7538C15.6535 96.7538 15.472 95.1828 15.472 94.6284C15.5627 93.8891 15.5627 93.2422 15.6535 92.8726C15.7442 92.5029 16.1072 92.5953 16.1072 92.5953C16.6516 92.5953 16.6516 93.0574 16.6516 93.0574V93.3346C16.6516 93.3346 16.6516 94.998 16.7424 96.2918C16.7424 96.6614 17.7405 100.82 17.7405 100.82C17.7405 100.82 17.922 101.19 17.559 101.19ZM17.3776 81.7833C16.7424 82.7998 16.2887 82.7998 16.2887 82.7998C16.2887 82.7074 16.1072 82.3377 16.6516 81.2288C17.1961 80.1199 17.7405 80.2123 17.7405 80.2123L17.922 80.3971C17.922 80.3971 18.0127 80.7668 17.3776 81.7833ZM23.8202 120.503C24.0016 120.134 25.1813 121.058 25.1813 121.058C25.635 121.15 26.0887 121.982 26.0887 121.982C26.0887 121.982 26.2701 122.629 25.7257 122.814C25.1813 123.091 24.8183 122.536 24.8183 122.536C24.8183 122.536 23.6387 120.873 23.8202 120.503ZM32.3498 92.2257C31.0794 91.9485 28.3572 89.823 27.2683 89.2685C26.1794 88.7141 24.3646 88.5293 25.1813 87.79C25.272 87.6976 25.3627 87.5127 25.5442 87.5127C25.7257 87.5127 26.5424 87.79 26.5424 87.79L28.5387 88.6217C28.6294 88.6217 29.6276 89.0837 30.4442 89.5458C31.1702 90.0078 32.4405 90.8395 32.4405 90.8395L32.985 91.3016C32.985 91.4864 33.6201 92.5029 32.3498 92.2257ZM43.4201 73.836C43.4201 73.836 41.8776 75.9614 40.9701 77.2551C39.7905 79.011 38.3387 81.6909 38.0664 81.4136C37.7942 81.1364 39.3368 78.1793 40.1535 76.6083C41.0609 74.6676 42.422 73.6511 42.9664 73.4663C44.1461 72.9118 43.4201 73.836 43.4201 73.836ZM38.5201 166.339C38.5201 166.339 38.5201 166.709 37.885 167.171C37.2498 167.633 36.9776 167.356 36.8868 167.356C36.7961 167.356 36.1609 166.986 36.1609 166.616C36.2516 166.247 37.2498 165.969 37.2498 165.969C38.9739 165.877 38.5201 166.339 38.5201 166.339ZM52.585 165.785C51.9498 165.692 51.859 165.507 51.9498 165.415C51.9498 165.323 52.1313 165.138 52.8572 165.138C53.5831 165.138 53.5831 165.507 53.5831 165.507C53.5831 165.785 53.3109 165.877 52.585 165.785ZM68.7368 166.709C67.3757 167.078 66.8313 166.894 65.6516 166.986C64.6535 167.078 64.1998 167.171 63.2016 167.171C61.4776 167.171 61.2961 167.263 58.8461 166.524C58.3924 166.339 57.8479 165.785 58.0294 165.6C58.2109 165.323 58.5739 165.415 58.5739 165.415C58.5739 165.415 61.659 165.969 63.6553 166.062C65.1072 166.154 65.8331 166.247 67.285 166.154C68.1016 166.154 67.6479 166.062 68.9183 166.062C69.372 165.969 69.0998 166.616 68.7368 166.709ZM77.3572 164.121C77.2664 164.214 76.722 164.398 76.2683 164.491C75.7239 164.583 75.9961 164.121 75.9961 164.121C75.9961 164.121 76.359 163.567 76.8127 163.29C77.3572 163.012 77.6294 163.29 77.6294 163.29C77.8109 163.659 77.4479 164.029 77.3572 164.121ZM84.072 146.378C83.4368 147.765 83.2553 148.227 83.1646 149.52C82.9831 150.906 83.7998 154.788 82.5294 153.309C82.0757 152.662 81.622 149.613 81.985 148.134C82.6201 144.807 85.2516 143.883 84.072 146.378ZM65.7424 202.841C65.1979 203.211 66.2868 204.32 64.5627 204.227C63.5646 204.135 64.109 203.211 64.1998 203.119L64.835 202.194C65.2887 201.548 65.5609 201.455 66.0146 201.178C66.4683 200.901 66.8313 201.64 66.8313 201.64C66.8313 201.64 67.0127 201.917 67.0127 202.287C67.0127 202.564 66.1961 202.472 65.7424 202.841ZM75.2701 193.508L74.4535 194.155C74.3627 194.155 73.8183 194.617 73.6368 194.34C73.4553 194.062 73.7276 193.693 73.7276 193.6C73.7276 193.508 74.272 192.861 74.7257 192.676C75.1794 192.399 75.4516 192.676 75.4516 192.676C75.7239 193.323 75.2701 193.508 75.2701 193.508ZM79.535 31.6043C79.535 31.6043 79.172 32.8056 78.4461 33.0828C77.5387 33.3601 74.0905 33.4525 73.9998 33.1752C73.909 32.898 77.9924 32.5284 79.535 30.9574C79.8979 30.5877 79.535 31.6043 79.535 31.6043ZM78.2646 28.5547C78.5368 28.0926 78.3553 29.294 78.3553 29.294C78.3553 29.294 78.0831 30.4953 77.4479 30.865C76.6313 31.327 74.635 31.8815 74.4535 31.6043C74.4535 31.4194 77.085 30.5877 78.2646 28.5547ZM72.6387 14.6931C72.6387 14.6931 73.0016 14.6931 73.5461 14.9703C74.0905 15.34 74.4535 16.4489 74.4535 16.4489C74.4535 16.4489 74.5442 16.6337 74.0905 16.6337C73.8183 16.6337 73.8183 16.1717 73.5461 15.9868C73.1831 15.7096 72.9109 15.6172 72.4572 15.4324C72.0035 15.2476 71.3683 15.5248 71.2776 15.0627C71.2776 14.5083 72.6387 14.6931 72.6387 14.6931ZM68.4646 17.7426C68.4646 17.7426 68.6461 17.1882 69.4627 16.7261C70.1887 16.2641 71.1868 16.2641 71.1868 16.2641C71.1868 16.2641 71.7313 16.2641 72.3664 16.7261C73.0016 17.1882 73.5461 18.7592 73.5461 18.7592C73.5461 18.7592 73.7276 19.7757 73.2739 20.1453C72.8202 20.515 72.0942 19.8681 71.7313 19.3136C71.2776 18.7592 71.0053 18.5743 70.3702 18.3895C69.6442 18.1123 68.5553 18.944 68.3739 18.3895C68.3739 18.2047 68.4646 17.7426 68.4646 17.7426ZM68.1924 30.4953C67.6479 30.5877 68.0109 30.0333 68.0109 30.0333C68.0109 30.0333 69.5535 29.3864 70.5516 28.8319C72.185 28.0002 75.2701 24.6735 74.4535 26.2444C74.0905 26.9837 73.0016 27.9078 73.0016 27.9078C73.0016 27.9078 71.7313 29.756 71.459 30.0333C70.2794 30.9574 68.8276 30.4029 68.1924 30.4953ZM55.3979 66.3507L55.4887 66.1659C55.4887 66.1659 58.2109 64.3176 62.4757 64.8721C65.0164 65.2418 67.4664 67.552 67.1035 67.8293C66.7405 68.1065 66.1961 67.8293 66.0146 67.8293L65.1072 67.3672L63.7461 66.9976C63.7461 66.9976 61.2961 66.4431 59.4813 66.5355C57.6664 66.6279 56.0331 67.2748 56.0331 67.2748C56.0331 67.2748 55.3072 67.6444 55.1257 67.1824C55.035 66.6279 55.3979 66.3507 55.3979 66.3507ZM62.1127 118.378C55.8516 113.48 48.2294 103.5 49.1368 102.576C49.9535 101.836 53.0387 106.457 57.6664 111.54C62.5664 116.899 68.2831 121.982 68.4646 122.629C68.8276 123.738 64.472 120.226 62.1127 118.378ZM76.359 49.3471C73.7276 53.9676 70.0979 57.4793 70.0979 57.4793C68.8276 58.4034 69.6442 56.74 69.6442 56.74C69.6442 56.74 73.1831 51.7498 74.8165 48.2382C75.9961 45.7431 76.722 42.4163 77.2664 41.7694C78.5368 40.1985 77.9016 46.5748 76.359 49.3471ZM83.6183 99.9882C80.8961 96.6614 78.8998 93.0574 78.2646 88.5293C78.0831 87.5127 78.0831 86.0342 78.9905 86.219C79.8072 86.3114 79.7165 87.8824 79.7165 88.252C79.9887 90.9319 81.0776 93.6118 83.0739 96.8462C85.8868 101.374 90.4239 104.886 90.2424 105.163C89.7887 105.625 85.2516 102.021 83.6183 99.9882ZM84.435 186.392C82.8924 187.871 80.2609 189.904 80.2609 189.904H79.8979V189.442L79.9887 189.257L80.1702 188.98L80.3516 188.702L80.5331 188.425L81.0776 187.778L82.3479 186.577L83.6183 185.376L85.6146 183.343C85.6146 183.343 86.3405 182.511 86.6127 182.326C86.885 182.141 87.0664 181.956 87.3387 181.772C87.7016 181.587 88.1553 181.31 88.3368 181.494V181.864C88.4276 182.141 86.0683 184.821 84.435 186.392ZM90.0609 118.008C88.8813 118.84 88.4276 118.748 87.7016 119.579C86.885 120.596 86.6127 124.015 85.7961 122.629C84.9794 121.243 85.5239 119.302 86.885 117.823C88.5183 115.883 92.0572 116.53 90.0609 118.008ZM94.3257 178.814C94.8701 178.63 95.1424 178.722 95.1424 178.722L95.3239 179.092C95.3239 179.184 94.5979 180.201 94.235 180.201C93.7813 180.108 93.9627 179.554 93.9627 179.554C93.9627 179.554 93.7813 178.999 94.3257 178.814ZM109.842 141.203C109.026 140.649 110.296 138.985 110.296 137.599C110.296 136.49 110.115 135.659 110.115 134.735C110.115 133.811 111.022 133.533 111.022 133.533C111.203 133.533 111.566 133.718 112.02 134.642C112.474 135.566 111.294 142.127 109.842 141.203ZM137.609 114.774C137.428 118.655 137.246 121.427 134.978 124.385C132.255 127.989 127.537 131.685 128.535 128.728C129.17 126.972 133.344 124.754 134.978 119.856C135.885 116.899 136.066 114.127 136.066 114.127L135.885 108.49C135.885 108.49 135.794 108.028 135.794 107.381C136.066 106.642 136.429 107.196 136.429 107.196L136.611 107.473C136.611 107.658 137.7 112.002 137.609 114.774Z" fill="#F8F8F8"/>
</svg>
